<svg xmlns="http://www.w3.org/2000/svg" version="1.1" viewBox="-5.0 -10.0 110.0 135.0">
 <path d="m90.484 53.781c-0.85938-0.125-1.6406 0.48438-1.75 1.3438-0.60938 4.6094-2 8.9375-4.0625 12.875-0.96875-0.59375-1.9531-0.92188-2.9688-1.0156-3.7812-0.34375-7.1562 2.6406-11.812 6.7812l-0.67188 0.60938c-3.1719 2.8125-8.1094 2.6719-12.875 2.5469-5.5781-0.15625-11.344-0.29688-13.812 4.6562-1.1719 2.375-1.3125 4.5938-0.84375 6.5781-6.6875-1.4375-12.906-4.6406-18.047-9.3281-0.64062-0.57812-1.625-0.54688-2.2031 0.09375-0.59375 0.64062-0.54688 1.625 0.09375 2.2188 6.1094 5.5781 13.625 9.2031 21.688 10.5 2.2188 0.35938 4.4844 0.54688 6.7812 0.54688 15.859 0 29.953-8.8906 37.141-22.188 2.3906-4.3906 4.0156-9.2812 4.6875-14.469 0.10938-0.85938-0.48438-1.6406-1.3438-1.75z" fill="#ffffff"/>
 <path d="m23.68 75.293c9.6602 0 21.371-2.3359 33.121-6.6133 4.6914-1.707 9.1875-3.668 13.422-5.8203l-0.97266 3.3086c-0.24219 0.82812 0.23047 1.6953 1.0586 1.9375 0.14844 0.042969 0.29688 0.0625 0.44141 0.0625 0.67578 0 1.2969-0.44141 1.5-1.1211l2.0781-7.0508c0.11719-0.39844 0.070313-0.82422-0.125-1.1875-0.19922-0.36328-0.53125-0.63281-0.92969-0.75l-7.0508-2.0781c-0.82812-0.25-1.6953 0.23047-1.9375 1.0586-0.24219 0.82813 0.23047 1.6953 1.0586 1.9375l3.5664 1.0508c-4.1484 2.1133-8.5547 4.0391-13.164 5.7148-11.809 4.2969-23.523 6.6016-33.004 6.4141-8.8359-0.15234-14.715-2.4688-16.133-6.3594-0.96875-2.6602 0.19922-5.6484 1.8984-8.2383 0.52734 2.9062 1.3477 5.75 2.4883 8.5 0.23438 0.59375 0.82812 0.96875 1.4375 0.96875 0.20312 0 0.40625-0.046875 0.59375-0.125 0.79688-0.32812 1.1719-1.2344 0.85938-2.0312-1.9531-4.7188-2.9375-9.7344-2.9375-14.875 0-3.9219 0.57812-7.7188 1.6562-11.281 0.71875 0.17188 1.4062 0.40625 2.0625 0.6875 1.7812 0.76562 7.4688 3.8438 5.2812 10.984-1.6094 5.2812 0.71875 8.0469 2.25 9.2344 1.9375 1.5 4.7031 2.1562 7.5156 2.1562 3.0469 0 6.1562-0.78125 8.3125-2.1094 2.2656-1.4062 3.3438-3.375 2.9531-5.4062-1.1875-6.0938 6.8125-11.828 11.703-14.688 3.2188-1.9062 4.8281-5.5625 4.1875-9.5469-0.79688-4.9531-4.7344-8.8906-10.047-10.047-4.0938-0.875-6.8125-4.1406-8.5469-7.25 3.7031-1.1719 7.6406-1.7969 11.734-1.7969 4.4531 0 8.7344 0.73438 12.719 2.0938-1.7188 3.5625-2.4844 8.2656 0.34375 12.922 1.5938 2.5938 2.5781 5.1094 2.9219 7.4688 0.75 5.1094 5.0781 8.9375 10.281 9.1094h0.65625c3.0938 0 6.8438-0.73438 10.656-3.25 0.59766 2.1055 1.0117 4.3008 1.2539 6.5469-1.5625 1.7305-3.4688 3.5078-5.7148 5.2852-0.67578 0.53516-0.78906 1.5195-0.25391 2.1953 0.30859 0.39062 0.76562 0.59375 1.2266 0.59375 0.33984 0 0.67969-0.10938 0.96875-0.33594 9.3711-7.418 13.379-14.676 11.285-20.434-1.4336-3.9414-5.6055-6.6172-12.047-7.7695-4.9297-6.8789-11.859-12.176-19.949-15.066-4.4688-1.6094-9.3125-2.4844-14.344-2.4844-18.551-0.13281-35.547 12.707-40.547 30.547-1.0625 3.7031-1.6406 7.6094-1.6406 11.641 0 1.0508 0.050781 2.0898 0.125 3.1289-4.2227 5.043-5.7188 9.7852-4.2773 13.738 1.9102 5.25 8.6641 8.2383 19.016 8.418 0.33203 0.007812 0.66797 0.007812 1.0039 0.007812zm69.723-41.094c0.82422 2.2617 0.11328 5.1016-1.9102 8.2148-0.32031-1.7695-0.73047-3.5-1.2578-5.1836-0.89453-2.8516-2.0938-5.5586-3.5312-8.0977 2.9297 0.89063 5.7344 2.4141 6.7031 5.0664z" fill="#ffffff"/>
 <path d="m50.996 46.344c-2.1562 1.668-3.1992 3.8477-3.0156 6.3047 0.16797 2.2734 1.9062 3.7812 4.4297 3.8359h0.14844c3.4102 0 7.4297-2.4492 7.8555-6.0586 0.30469-2.582-0.88672-4.5078-3.2695-5.2812-2.0312-0.65625-4.3281-0.21094-6.1445 1.1953z" fill="#ffffff"/>
<text x="0.0" y="117.5" font-size="5.0" font-weight="bold" font-family="Arbeit Regular, Helvetica, Arial-Unicode, Arial, Sans-serif" fill="#ffffff">Created by Gung Yoga</text><text x="0.0" y="122.5" font-size="5.0" font-weight="bold" font-family="Arbeit Regular, Helvetica, Arial-Unicode, Arial, Sans-serif" fill="#ffffff">from Noun Project</text></svg>